# This file uses centimeters as units for non-parametric coordinates.

mtllib Carretera.mtl
g default
v -226.474245 -31.265276 3805.944949
v 226.474245 -31.265276 3805.944949
v -162.727832 4.350944 3805.944949
v 162.727832 4.350944 3805.944949
v -162.727832 4.350944 -3805.944949
v 162.727832 4.350944 -3805.944949
v -226.474245 -31.265276 -3805.944949
v 226.474245 -31.265276 -3805.944949
vt 0.375000 0.000000
vt 0.625000 0.000000
vt 0.375000 0.250000
vt 0.625000 0.250000
vt 0.375000 0.500000
vt 0.625000 0.500000
vt 0.875000 0.000000
vt 0.875000 0.250000
vt 0.125000 0.000000
vt 0.125000 0.250000
vn 0.000000 1.000000 0.000000
vn 0.000000 1.000000 0.000000
vn 0.000000 1.000000 0.000000
vn 0.000000 1.000000 0.000000
vn 0.487751 0.872983 0.000000
vn 0.487751 0.872983 0.000000
vn 0.487751 0.872983 0.000000
vn 0.487751 0.872983 0.000000
vn -0.487751 0.872983 0.000000
vn -0.487751 0.872983 0.000000
vn -0.487751 0.872983 0.000000
vn -0.487751 0.872983 0.000000
s off
g Carretera
usemtl initialShadingGroup
f 3/3/1 4/4/2 6/6/3 5/5/4
f 2/2/5 8/7/6 6/8/7 4/4/8
f 7/9/9 1/1/10 3/3/11 5/10/12
